<svg width="830" height="135" viewBox="0 0 830 135" fill="none" xmlns="http://www.w3.org/2000/svg">
<g clip-path="url(#clip0_669_6286)">
<rect width="830" height="135" rx="14" fill="#163021"/>
<rect width="830" height="135" rx="14" fill="#14271C" fill-opacity="0.4"/>
<rect width="830" height="135" rx="14" fill="url(#paint0_radial_669_6286)" fill-opacity="0.2"/>
<rect width="830" height="135" rx="14" fill="url(#paint1_radial_669_6286)" fill-opacity="0.2"/>
<path fill-rule="evenodd" clip-rule="evenodd" d="M39.0098 30.8346L28 30.835V25.123H39.0098V30.835H44.754V41.8771H39.0098V36.5471C36.093 36.5979 33.7442 38.9647 33.7442 41.8771H28C28 35.8103 32.9205 30.8862 39.0098 30.835V30.8346Z" fill="#A0FFC9"/>
<path d="M67.5659 41.076C66.9686 41.468 66.2219 41.7667 65.3259 41.972C64.4486 42.1587 63.5246 42.252 62.5539 42.252C60.7059 42.252 59.1006 41.8787 57.7379 41.132C56.3752 40.3853 55.3206 39.368 54.5739 38.08C53.8272 36.7733 53.4539 35.308 53.4539 33.684C53.4539 32.0227 53.8272 30.5573 54.5739 29.288C55.3206 28 56.3379 26.9827 57.6259 26.236C58.9326 25.4893 60.4072 25.116 62.0499 25.116C63.2259 25.116 64.2526 25.2373 65.1299 25.48C66.0259 25.704 66.8286 26.0587 67.5379 26.544L66.3339 29.932C65.8299 29.5027 65.2419 29.1667 64.5699 28.924C63.8979 28.6813 63.1512 28.56 62.3299 28.56C61.3592 28.56 60.4912 28.7653 59.7259 29.176C58.9606 29.5867 58.3539 30.1747 57.9059 30.94C57.4766 31.7053 57.2619 32.62 57.2619 33.684C57.2619 34.6733 57.4859 35.56 57.9339 36.344C58.3819 37.1093 59.0166 37.716 59.8379 38.164C60.6592 38.5933 61.6112 38.808 62.6939 38.808C63.6646 38.808 64.5606 38.6867 65.3819 38.444C66.2219 38.2013 66.9032 37.8747 67.4259 37.464L67.5659 41.076ZM72.4819 24.248V42H68.8979V24.416L72.4819 24.248ZM76.1402 24.024C76.7002 24.024 77.1576 24.2107 77.5122 24.584C77.8669 24.9387 78.0442 25.3867 78.0442 25.928C78.0442 26.488 77.8669 26.9547 77.5122 27.328C77.1576 27.6827 76.7002 27.86 76.1402 27.86C75.5616 27.86 75.0762 27.6827 74.6842 27.328C74.3109 26.9547 74.1242 26.488 74.1242 25.928C74.1242 25.3867 74.3109 24.9387 74.6842 24.584C75.0762 24.2107 75.5616 24.024 76.1402 24.024ZM77.8763 29.596V42H74.2922V29.764L77.8763 29.596ZM89.5426 30.52L88.7586 33.768C88.4413 33.4507 88.0213 33.1893 87.4986 32.984C86.976 32.7787 86.4346 32.676 85.8746 32.676C85.2586 32.676 84.6986 32.8067 84.1946 33.068C83.7093 33.3107 83.3266 33.6653 83.0466 34.132C82.7853 34.5987 82.6546 35.1587 82.6546 35.812C82.6546 36.484 82.7946 37.0627 83.0746 37.548C83.3546 38.0333 83.756 38.3973 84.2786 38.64C84.82 38.8827 85.4453 39.004 86.1546 39.004C86.7893 39.004 87.3866 38.9107 87.9466 38.724C88.5253 38.5373 89.0386 38.2947 89.4866 37.996L89.6266 41.188C89.104 41.5053 88.5066 41.7667 87.8346 41.972C87.1626 42.1587 86.4066 42.252 85.5666 42.252C84.3906 42.252 83.2986 42 82.2906 41.496C81.2826 40.992 80.4706 40.264 79.8546 39.312C79.2573 38.3413 78.9586 37.1747 78.9586 35.812C78.9586 34.58 79.248 33.488 79.8266 32.536C80.4053 31.5653 81.1893 30.8093 82.1786 30.268C83.168 29.708 84.2693 29.428 85.4826 29.428C86.3786 29.428 87.1626 29.5307 87.8346 29.736C88.5253 29.9227 89.0946 30.184 89.5426 30.52ZM102.81 29.764L98.4705 34.804L103.034 42H98.9185L95.7265 37.296L94.2705 38.976V42H90.6865V24.416L94.2705 24.248V35.588H94.4105C94.6158 35.1773 94.8865 34.72 95.2225 34.216C95.5585 33.6933 95.9598 33.1333 96.4265 32.536L98.9745 29.596L102.81 29.764ZM119.108 42H115.132L113.732 37.94H107.88L106.452 42H102.672L108.72 25.368H113.06L119.108 42ZM112.78 35L111.436 31.22C111.306 30.8467 111.194 30.5013 111.1 30.184C111.026 29.848 110.951 29.512 110.876 29.176H110.736C110.662 29.512 110.578 29.848 110.484 30.184C110.41 30.5013 110.307 30.8467 110.176 31.22L108.804 35H112.78ZM131.444 42H127.86V34.636C127.86 33.908 127.682 33.3853 127.328 33.068C126.973 32.7507 126.488 32.592 125.872 32.592C125.461 32.592 125.041 32.6667 124.612 32.816C124.182 32.9467 123.772 33.1333 123.38 33.376V42H119.796V29.764L123.38 29.596V30.744C123.977 30.296 124.584 29.9693 125.2 29.764C125.834 29.54 126.497 29.428 127.188 29.428C128.476 29.428 129.502 29.792 130.268 30.52C131.052 31.2293 131.444 32.3493 131.444 33.88V42ZM144.848 24.248V42H141.264V41.244C140.368 41.916 139.314 42.252 138.1 42.252C137.092 42.252 136.159 42 135.3 41.496C134.46 40.992 133.788 40.2733 133.284 39.34C132.78 38.388 132.528 37.268 132.528 35.98C132.528 34.6547 132.78 33.5067 133.284 32.536C133.807 31.5467 134.535 30.7813 135.468 30.24C136.42 29.6987 137.531 29.428 138.8 29.428C139.248 29.428 139.687 29.4653 140.116 29.54C140.546 29.6147 140.928 29.7267 141.264 29.876V24.416L144.848 24.248ZM141.264 32.872C141.04 32.7787 140.751 32.6947 140.396 32.62C140.042 32.5453 139.696 32.508 139.36 32.508C138.726 32.508 138.166 32.648 137.68 32.928C137.214 33.1893 136.85 33.572 136.588 34.076C136.346 34.58 136.224 35.1773 136.224 35.868C136.224 36.54 136.336 37.128 136.56 37.632C136.784 38.1173 137.111 38.5 137.54 38.78C137.988 39.0413 138.502 39.172 139.08 39.172C139.92 39.172 140.648 38.9573 141.264 38.528V32.872ZM164.835 25.368V42H161.111V31.808H160.971C160.896 32.1813 160.794 32.5547 160.663 32.928C160.532 33.3013 160.364 33.712 160.159 34.16L157.527 39.62H154.027L151.395 34.16C151.208 33.7493 151.05 33.348 150.919 32.956C150.788 32.564 150.676 32.1813 150.583 31.808H150.443V42H146.887V25.368H150.835L154.811 33.712C154.998 34.1227 155.184 34.5613 155.371 35.028C155.558 35.476 155.698 35.868 155.791 36.204H155.931C156.024 35.868 156.164 35.4667 156.351 35C156.538 34.5333 156.724 34.104 156.911 33.712L160.859 25.368H164.835ZM177.797 36.708H169.901C170.013 37.212 170.237 37.6507 170.573 38.024C170.928 38.3787 171.376 38.6493 171.917 38.836C172.477 39.0227 173.13 39.116 173.877 39.116C174.512 39.116 175.193 39.032 175.921 38.864C176.649 38.6773 177.246 38.444 177.713 38.164L177.853 41.216C177.368 41.552 176.714 41.8133 175.893 42C175.09 42.168 174.334 42.252 173.625 42.252C172.038 42.252 170.676 41.9907 169.537 41.468C168.417 40.9267 167.568 40.1707 166.989 39.2C166.429 38.2293 166.149 37.0907 166.149 35.784C166.149 34.496 166.41 33.3853 166.933 32.452C167.474 31.5 168.212 30.7627 169.145 30.24C170.097 29.6987 171.161 29.428 172.337 29.428C173.42 29.428 174.381 29.6427 175.221 30.072C176.08 30.5013 176.742 31.1267 177.209 31.948C177.694 32.7507 177.937 33.7213 177.937 34.86C177.937 35.1027 177.918 35.4013 177.881 35.756C177.862 36.092 177.834 36.4093 177.797 36.708ZM172.365 32.004C171.637 32.004 171.04 32.2467 170.573 32.732C170.125 33.2173 169.854 33.8613 169.761 34.664H174.605C174.605 34.6267 174.605 34.5707 174.605 34.496C174.605 34.4027 174.605 34.3373 174.605 34.3C174.605 33.6093 174.4 33.0587 173.989 32.648C173.597 32.2187 173.056 32.004 172.365 32.004ZM191.789 35.84C191.789 37.072 191.5 38.1733 190.921 39.144C190.361 40.1147 189.577 40.88 188.569 41.44C187.561 41.9813 186.413 42.252 185.125 42.252C183.837 42.252 182.689 41.9813 181.681 41.44C180.673 40.88 179.88 40.1147 179.301 39.144C178.741 38.1733 178.461 37.072 178.461 35.84C178.461 34.5893 178.741 33.488 179.301 32.536C179.88 31.5653 180.673 30.8093 181.681 30.268C182.689 29.708 183.837 29.428 185.125 29.428C186.413 29.428 187.561 29.708 188.569 30.268C189.577 30.8093 190.361 31.5653 190.921 32.536C191.5 33.488 191.789 34.5893 191.789 35.84ZM188.093 35.84C188.093 35.1867 187.963 34.6173 187.701 34.132C187.44 33.628 187.085 33.2453 186.637 32.984C186.189 32.704 185.685 32.564 185.125 32.564C184.565 32.564 184.061 32.704 183.613 32.984C183.165 33.2453 182.811 33.628 182.549 34.132C182.288 34.6173 182.157 35.1867 182.157 35.84C182.157 36.4933 182.288 37.072 182.549 37.576C182.811 38.0613 183.165 38.444 183.613 38.724C184.08 38.9853 184.584 39.116 185.125 39.116C185.704 39.116 186.217 38.9853 186.665 38.724C187.113 38.444 187.459 38.0613 187.701 37.576C187.963 37.072 188.093 36.4933 188.093 35.84ZM211.884 29.68L208.244 42H204.436L202.98 37.66C202.719 36.764 202.504 36.0453 202.336 35.504C202.168 34.944 202.028 34.4307 201.916 33.964H201.776C201.683 34.4307 201.543 34.944 201.356 35.504C201.188 36.0453 200.974 36.764 200.712 37.66L199.256 42H195.448L191.808 29.764L195.42 29.596L197.072 35.476C197.166 35.868 197.259 36.3347 197.352 36.876C197.464 37.3987 197.548 37.884 197.604 38.332H197.744C197.8 37.884 197.894 37.3987 198.024 36.876C198.155 36.3347 198.276 35.868 198.388 35.476L200.012 30.604H203.82L205.444 35.476C205.556 35.868 205.678 36.3347 205.808 36.876C205.939 37.3987 206.032 37.884 206.088 38.332H206.228C206.284 37.884 206.359 37.3987 206.452 36.876C206.564 36.3347 206.667 35.868 206.76 35.476L208.356 29.68H211.884Z" fill="#A0FFC9"/>
<path d="M48.4377 78H43.5601L41.8427 73.0194H34.6637L32.9119 78H28.2748L35.6942 57.5966H41.0183L48.4377 78ZM40.6748 69.4127L39.0261 64.7756C38.8658 64.3176 38.7284 63.894 38.6139 63.5047C38.5223 63.0925 38.4307 62.6803 38.3391 62.2681H38.1673C38.0757 62.6803 37.9727 63.0925 37.8582 63.5047C37.7666 63.894 37.6407 64.3176 37.4804 64.7756L35.7972 69.4127H40.6748ZM79.9611 78H75.5644V68.9662C75.5644 68.8517 75.5529 68.7486 75.53 68.657C75.5071 68.5654 75.4842 68.4738 75.4614 68.3822C75.3927 67.6953 75.1637 67.2029 74.7744 66.9052C74.3851 66.6075 73.8813 66.4587 73.263 66.4587C73.2401 66.4587 73.2058 66.4701 73.16 66.493C73.1142 66.493 73.0798 66.493 73.0569 66.493C72.6218 66.5159 72.1638 66.6075 71.6829 66.7678C71.225 66.9281 70.7784 67.1457 70.3433 67.4205C70.3662 67.6266 70.3777 67.8327 70.3777 68.0388C70.4006 68.2449 70.412 68.4624 70.412 68.6914V78H66.0497V68.9662C66.0497 68.8517 66.0382 68.7486 66.0153 68.657C65.9924 68.5654 65.9695 68.4738 65.9466 68.3822C65.8779 67.6953 65.649 67.2029 65.2597 66.9052C64.8704 66.6075 64.3666 66.4587 63.7483 66.4587C63.3132 66.4587 62.8323 66.5503 62.3056 66.7335C61.8019 66.8938 61.3324 67.1228 60.8973 67.4205V78H56.5006V62.9894L60.8973 62.7833V64.1917C61.4011 63.8024 61.9049 63.4932 62.4087 63.2642C62.9354 63.0123 63.4506 62.852 63.9544 62.7833C64.5498 62.6459 65.1795 62.6116 65.8436 62.6803C66.668 62.7261 67.4122 62.9207 68.0763 63.2642C68.7404 63.6077 69.2671 64.123 69.6563 64.8099C70.4578 64.0314 71.2822 63.4703 72.1295 63.1268C72.9997 62.7604 73.8813 62.5772 74.7744 62.5772C76.3086 62.5772 77.5566 63.0238 78.5184 63.9169C79.4802 64.787 79.9611 66.161 79.9611 68.0388V78ZM96.2544 71.508H86.5679C86.7053 72.1263 86.9801 72.6644 87.3923 73.1224C87.8274 73.5575 88.377 73.8896 89.0411 74.1185C89.728 74.3475 90.5295 74.462 91.4455 74.462C92.2241 74.462 93.0599 74.359 93.953 74.1529C94.8461 73.9239 95.5788 73.6377 96.1513 73.2942L96.3231 77.0382C95.7277 77.4504 94.9262 77.771 93.9186 78C92.934 78.2061 92.0065 78.3091 91.1364 78.3091C89.1899 78.3091 87.5182 77.9886 86.1214 77.3474C84.7474 76.6833 83.7055 75.7559 82.9956 74.5651C82.3086 73.3743 81.9651 71.9775 81.9651 70.3745C81.9651 68.7944 82.2857 67.4319 82.9269 66.287C83.591 65.1191 84.4955 64.2146 85.6405 63.5734C86.8084 62.9093 88.1136 62.5772 89.5563 62.5772C90.8845 62.5772 92.0638 62.8406 93.0943 63.3673C94.1476 63.894 94.9606 64.6611 95.533 65.6687C96.1284 66.6533 96.4261 67.8441 96.4261 69.241C96.4261 69.5387 96.4032 69.9051 96.3574 70.3401C96.3345 70.7523 96.3002 71.1416 96.2544 71.508ZM89.5906 65.7374C88.6976 65.7374 87.9648 66.0351 87.3923 66.6304C86.8427 67.2258 86.5107 68.0159 86.3962 69.0005H92.3386C92.3386 68.9547 92.3386 68.886 92.3386 68.7944C92.3386 68.6799 92.3386 68.5998 92.3386 68.554C92.3386 67.7067 92.0867 67.0312 91.5829 66.5274C91.102 66.0007 90.4379 65.7374 89.5906 65.7374ZM114.107 70.4432C114.107 71.9546 113.752 73.3056 113.042 74.4964C112.355 75.6872 111.393 76.626 110.156 77.313C108.92 77.9771 107.511 78.3091 105.931 78.3091C104.351 78.3091 102.943 77.9771 101.706 77.313C100.47 76.626 99.4967 75.6872 98.7868 74.4964C98.0998 73.3056 97.7563 71.9546 97.7563 70.4432C97.7563 68.9089 98.0998 67.5579 98.7868 66.39C99.4967 65.1992 100.47 64.2718 101.706 63.6077C102.943 62.9207 104.351 62.5772 105.931 62.5772C107.511 62.5772 108.92 62.9207 110.156 63.6077C111.393 64.2718 112.355 65.1992 113.042 66.39C113.752 67.5579 114.107 68.9089 114.107 70.4432ZM109.572 70.4432C109.572 69.6417 109.412 68.9433 109.092 68.3479C108.771 67.7296 108.336 67.2602 107.786 66.9396C107.237 66.5961 106.618 66.4243 105.931 66.4243C105.244 66.4243 104.626 66.5961 104.077 66.9396C103.527 67.2602 103.092 67.7296 102.771 68.3479C102.451 68.9433 102.29 69.6417 102.29 70.4432C102.29 71.2447 102.451 71.9546 102.771 72.5728C103.092 73.1682 103.527 73.6377 104.077 73.9812C104.649 74.3017 105.267 74.462 105.931 74.462C106.641 74.462 107.271 74.3017 107.821 73.9812C108.37 73.6377 108.794 73.1682 109.092 72.5728C109.412 71.9546 109.572 71.2447 109.572 70.4432ZM139.445 62.8864L134.98 78H130.308L128.522 72.6759C128.201 71.5767 127.938 70.6951 127.732 70.031C127.526 69.344 127.354 68.7143 127.217 68.1418H127.045C126.93 68.7143 126.759 69.344 126.53 70.031C126.324 70.6951 126.06 71.5767 125.74 72.6759L123.953 78H119.282L114.817 62.9894L119.248 62.7833L121.274 69.9967C121.389 70.4775 121.503 71.05 121.618 71.7141C121.755 72.3553 121.858 72.9507 121.927 73.5003H122.099C122.167 72.9507 122.282 72.3553 122.442 71.7141C122.602 71.05 122.751 70.4775 122.889 69.9967L124.881 64.0199H129.552L131.545 69.9967C131.682 70.4775 131.831 71.05 131.991 71.7141C132.151 72.3553 132.266 72.9507 132.335 73.5003H132.506C132.575 72.9507 132.667 72.3553 132.781 71.7141C132.919 71.05 133.045 70.4775 133.159 69.9967L135.117 62.8864H139.445ZM148.221 68.5196V72.2293H140.183V68.5196H148.221ZM174.079 78H169.682V68.9662C169.682 68.8517 169.671 68.7486 169.648 68.657C169.625 68.5654 169.602 68.4738 169.579 68.3822C169.511 67.6953 169.282 67.2029 168.892 66.9052C168.503 66.6075 167.999 66.4587 167.381 66.4587C167.358 66.4587 167.324 66.4701 167.278 66.493C167.232 66.493 167.198 66.493 167.175 66.493C166.74 66.5159 166.282 66.6075 165.801 66.7678C165.343 66.9281 164.896 67.1457 164.461 67.4205C164.484 67.6266 164.496 67.8327 164.496 68.0388C164.518 68.2449 164.53 68.4624 164.53 68.6914V78H160.168V68.9662C160.168 68.8517 160.156 68.7486 160.133 68.657C160.11 68.5654 160.087 68.4738 160.065 68.3822C159.996 67.6953 159.767 67.2029 159.378 66.9052C158.988 66.6075 158.484 66.4587 157.866 66.4587C157.431 66.4587 156.95 66.5503 156.424 66.7335C155.92 66.8938 155.45 67.1228 155.015 67.4205V78H150.619V62.9894L155.015 62.7833V64.1917C155.519 63.8024 156.023 63.4932 156.527 63.2642C157.053 63.0123 157.569 62.852 158.072 62.7833C158.668 62.6459 159.297 62.6116 159.962 62.6803C160.786 62.7261 161.53 62.9207 162.194 63.2642C162.858 63.6077 163.385 64.123 163.774 64.8099C164.576 64.0314 165.4 63.4703 166.247 63.1268C167.118 62.7604 167.999 62.5772 168.892 62.5772C170.427 62.5772 171.675 63.0238 172.636 63.9169C173.598 64.787 174.079 66.161 174.079 68.0388V78ZM189.96 78H185.804V76.8321C185.254 77.2672 184.59 77.6222 183.812 77.897C183.033 78.1717 182.174 78.3091 181.235 78.3091C179.564 78.3091 178.281 77.9084 177.388 77.1069C176.518 76.3054 176.083 75.1948 176.083 73.7751C176.083 72.2408 176.621 71.0844 177.697 70.3058C178.774 69.5043 180.228 69.1036 182.06 69.1036C182.724 69.1036 183.388 69.1608 184.052 69.2753C184.716 69.3898 185.254 69.5387 185.666 69.7219V68.8975C185.666 68.0044 185.38 67.3747 184.808 67.0083C184.258 66.619 183.388 66.4243 182.197 66.4243C181.35 66.4243 180.48 66.5274 179.587 66.7335C178.716 66.9396 178.018 67.2029 177.491 67.5235L177.32 63.6764C178.03 63.3329 178.865 63.0696 179.827 62.8864C180.812 62.6803 181.819 62.5772 182.85 62.5772C185.14 62.5772 186.892 63.0696 188.105 64.0543C189.342 65.016 189.96 66.5388 189.96 68.6227V78ZM185.666 74.4964V72.3324C185.346 72.1721 184.945 72.0462 184.464 71.9546C184.006 71.863 183.56 71.8172 183.125 71.8172C182.254 71.8172 181.59 71.9775 181.132 72.298C180.674 72.5957 180.445 73.0652 180.445 73.7064C180.445 74.3017 180.64 74.7368 181.029 75.0116C181.419 75.2635 181.991 75.3895 182.747 75.3895C183.273 75.3895 183.812 75.3093 184.361 75.149C184.911 74.9658 185.346 74.7483 185.666 74.4964ZM192.047 78V74.2559L199.432 66.6648H192.459V62.8864H204.653V66.6304L197.302 74.2216H205.065V78H192.047ZM209.517 55.9479C210.204 55.9479 210.765 56.1769 211.2 56.6349C211.636 57.0699 211.853 57.6195 211.853 58.2836C211.853 58.9706 211.636 59.5431 211.2 60.0011C210.765 60.4362 210.204 60.6537 209.517 60.6537C208.807 60.6537 208.212 60.4362 207.731 60.0011C207.273 59.5431 207.044 58.9706 207.044 58.2836C207.044 57.6195 207.273 57.0699 207.731 56.6349C208.212 56.1769 208.807 55.9479 209.517 55.9479ZM211.647 62.7833V78H207.25V62.9894L211.647 62.7833ZM228.844 78H224.447V68.9662C224.447 68.0731 224.23 67.4319 223.795 67.0426C223.36 66.6533 222.764 66.4587 222.009 66.4587C221.505 66.4587 220.99 66.5503 220.463 66.7335C219.936 66.8938 219.432 67.1228 218.952 67.4205V78H214.555V62.9894L218.952 62.7833V64.1917C219.684 63.6421 220.429 63.2413 221.184 62.9894C221.963 62.7146 222.776 62.5772 223.623 62.5772C225.203 62.5772 226.463 63.0238 227.401 63.9169C228.363 64.787 228.844 66.161 228.844 68.0388V78ZM245.838 62.3712L245.804 65.7717H243.537C243.766 66.0694 243.937 66.4129 244.052 66.8022C244.189 67.1686 244.258 67.5579 244.258 67.9701C244.258 69.5501 243.708 70.821 242.609 71.7828C241.51 72.7217 240.01 73.2369 238.109 73.3285L236.529 74.8742C236.804 74.8284 237.125 74.7941 237.491 74.7712C237.858 74.7254 238.224 74.7025 238.59 74.7025C238.957 74.6796 239.243 74.6681 239.449 74.6681C241.579 74.6681 243.205 75.0803 244.327 75.9047C245.472 76.7062 246.044 77.8741 246.044 79.4083C246.044 80.9197 245.414 82.1677 244.155 83.1524C242.918 84.1599 240.915 84.6637 238.144 84.6637C236.541 84.6637 235.041 84.5149 233.644 84.2172C232.27 83.9195 231.16 83.5188 230.312 83.015L230.656 79.2366C231.137 79.5801 231.789 79.8892 232.614 80.164C233.438 80.4388 234.354 80.6563 235.362 80.8166C236.392 80.9998 237.4 81.0914 238.384 81.0914C239.369 81.0914 240.113 81.0227 240.617 80.8853C241.121 80.7708 241.476 80.5876 241.682 80.3357C241.888 80.1067 241.991 79.8205 241.991 79.477C241.991 78.9503 241.728 78.5725 241.201 78.3435C240.697 78.1374 239.747 78.0343 238.35 78.0343C237.503 78.0343 236.598 78.0687 235.636 78.1374C234.675 78.2061 233.85 78.3206 233.163 78.4809V75.4238L235.602 73.1224C234.136 72.8476 233.003 72.2408 232.201 71.3019C231.4 70.363 230.999 69.2524 230.999 67.9701C230.999 66.8709 231.263 65.9206 231.789 65.1191C232.339 64.3176 233.106 63.6993 234.091 63.2642C235.098 62.8062 236.278 62.5772 237.629 62.5772C238.567 62.5772 239.438 62.7032 240.239 62.9551L245.838 62.3712ZM240.239 67.9701C240.239 67.2602 239.999 66.6762 239.518 66.2183C239.06 65.7603 238.43 65.5313 237.629 65.5313C236.804 65.5313 236.152 65.7603 235.671 66.2183C235.213 66.6762 234.984 67.2602 234.984 67.9701C234.984 68.657 235.213 69.2295 235.671 69.6875C236.152 70.1455 236.804 70.3745 237.629 70.3745C238.43 70.3745 239.06 70.157 239.518 69.7219C239.999 69.2639 240.239 68.6799 240.239 67.9701ZM53.1092 91.8864L48.6438 107H43.9723L42.1862 101.676C41.8656 100.577 41.6022 99.6951 41.3962 99.031C41.1901 98.344 41.0183 97.7143 40.8809 97.1418H40.7092C40.5947 97.7143 40.4229 98.344 40.1939 99.031C39.9878 99.6951 39.7245 100.577 39.4039 101.676L37.6178 107H32.9463L28.4809 91.9894L32.9119 91.7833L34.9385 98.9967C35.053 99.4775 35.1675 100.05 35.282 100.714C35.4194 101.355 35.5225 101.951 35.5912 102.5H35.7629C35.8316 101.951 35.9461 101.355 36.1064 100.714C36.2667 100.05 36.4155 99.4775 36.5529 98.9967L38.5452 93.0199H43.2167L45.2089 98.9967C45.3463 99.4775 45.4951 100.05 45.6554 100.714C45.8157 101.355 45.9302 101.951 45.9989 102.5H46.1707C46.2394 101.951 46.331 101.355 46.4455 100.714C46.5829 100.05 46.7088 99.4775 46.8233 98.9967L48.7812 91.8864H53.1092ZM64.4492 91.749L64.2775 95.9739C64.1401 95.9052 63.8997 95.8365 63.5562 95.7678C63.2356 95.6991 62.9264 95.6648 62.6287 95.6648C62.0105 95.6648 61.4036 95.7793 60.8082 96.0083C60.2358 96.2144 59.7091 96.5006 59.2282 96.867V107H54.8315V91.9894L59.2282 91.7833V93.5695C59.8923 92.8825 60.5678 92.3787 61.2548 92.0581C61.9647 91.7375 62.6974 91.5772 63.4531 91.5772C63.6134 91.5772 63.7852 91.5887 63.9684 91.6116C64.1744 91.6345 64.3347 91.6803 64.4492 91.749ZM79.1118 107H74.9555V105.832C74.4059 106.267 73.7418 106.622 72.9633 106.897C72.1847 107.172 71.326 107.309 70.3871 107.309C68.7154 107.309 67.4331 106.908 66.54 106.107C65.6698 105.305 65.2347 104.195 65.2347 102.775C65.2347 101.241 65.7728 100.084 66.8491 99.3058C67.9254 98.5043 69.3795 98.1036 71.2115 98.1036C71.8755 98.1036 72.5396 98.1608 73.2037 98.2753C73.8678 98.3898 74.4059 98.5387 74.8181 98.7219V97.8975C74.8181 97.0044 74.5319 96.3747 73.9594 96.0083C73.4098 95.619 72.5396 95.4243 71.3489 95.4243C70.5016 95.4243 69.6314 95.5274 68.7383 95.7335C67.8681 95.9396 67.1697 96.2029 66.643 96.5235L66.4713 92.6764C67.1812 92.3329 68.017 92.0696 68.9788 91.8864C69.9634 91.6803 70.971 91.5772 72.0015 91.5772C74.2914 91.5772 76.0432 92.0696 77.2569 93.0543C78.4935 94.016 79.1118 95.5388 79.1118 97.6227V107ZM74.8181 103.496V101.332C74.4975 101.172 74.0968 101.046 73.6159 100.955C73.1579 100.863 72.7114 100.817 72.2763 100.817C71.4061 100.817 70.742 100.977 70.284 101.298C69.826 101.596 69.597 102.065 69.597 102.706C69.597 103.302 69.7917 103.737 70.181 104.012C70.5703 104.264 71.1428 104.389 71.8984 104.389C72.4251 104.389 72.9633 104.309 73.5128 104.149C74.0624 103.966 74.4975 103.748 74.8181 103.496ZM97.0997 99.2714C97.0997 100.806 96.7676 102.18 96.1036 103.393C95.4624 104.607 94.5693 105.569 93.4243 106.279C92.3023 106.966 90.997 107.309 89.5085 107.309C88.2262 107.309 87.1842 107.103 86.3828 106.691V113.355H81.9861V91.9894L86.3828 91.7833V92.8825C86.9094 92.4474 87.4934 92.1268 88.1346 91.9207C88.7757 91.6917 89.5085 91.5772 90.3329 91.5772C91.5924 91.5772 92.7259 91.8864 93.7335 92.5047C94.7639 93.123 95.5769 94.0046 96.1723 95.1496C96.7905 96.2945 97.0997 97.6685 97.0997 99.2714ZM92.5656 99.4088C92.5656 98.5845 92.4282 97.8746 92.1534 97.2792C91.8786 96.6609 91.4664 96.1915 90.9168 95.8709C90.3902 95.5274 89.7261 95.3556 88.9246 95.3556C87.9399 95.3556 87.0926 95.619 86.3828 96.1457V103.119C86.6805 103.233 87.0239 103.336 87.4132 103.428C87.8254 103.496 88.2491 103.531 88.6842 103.531C89.4856 103.531 90.1726 103.37 90.7451 103.05C91.3176 102.706 91.7641 102.225 92.0847 101.607C92.4053 100.966 92.5656 100.233 92.5656 99.4088ZM114.199 99.2714C114.199 100.806 113.867 102.18 113.203 103.393C112.562 104.607 111.669 105.569 110.524 106.279C109.402 106.966 108.096 107.309 106.608 107.309C105.326 107.309 104.284 107.103 103.482 106.691V113.355H99.0855V91.9894L103.482 91.7833V92.8825C104.009 92.4474 104.593 92.1268 105.234 91.9207C105.875 91.6917 106.608 91.5772 107.432 91.5772C108.692 91.5772 109.825 91.8864 110.833 92.5047C111.863 93.123 112.676 94.0046 113.272 95.1496C113.89 96.2945 114.199 97.6685 114.199 99.2714ZM109.665 99.4088C109.665 98.5845 109.528 97.8746 109.253 97.2792C108.978 96.6609 108.566 96.1915 108.016 95.8709C107.49 95.5274 106.825 95.3556 106.024 95.3556C105.039 95.3556 104.192 95.619 103.482 96.1457V103.119C103.78 103.233 104.123 103.336 104.513 103.428C104.925 103.496 105.348 103.531 105.784 103.531C106.585 103.531 107.272 103.37 107.845 103.05C108.417 102.706 108.864 102.225 109.184 101.607C109.505 100.966 109.665 100.233 109.665 99.4088ZM129.581 100.508H119.895C120.032 101.126 120.307 101.664 120.719 102.122C121.154 102.558 121.704 102.89 122.368 103.119C123.055 103.348 123.856 103.462 124.772 103.462C125.551 103.462 126.387 103.359 127.28 103.153C128.173 102.924 128.906 102.638 129.478 102.294L129.65 106.038C129.054 106.45 128.253 106.771 127.245 107C126.261 107.206 125.333 107.309 124.463 107.309C122.517 107.309 120.845 106.989 119.448 106.347C118.074 105.683 117.032 104.756 116.322 103.565C115.635 102.374 115.292 100.977 115.292 99.3745C115.292 97.7944 115.612 96.4319 116.254 95.287C116.918 94.1191 117.822 93.2146 118.967 92.5734C120.135 91.9093 121.44 91.5772 122.883 91.5772C124.211 91.5772 125.39 91.8406 126.421 92.3673C127.474 92.894 128.287 93.6611 128.86 94.6687C129.455 95.6533 129.753 96.8441 129.753 98.241C129.753 98.5387 129.73 98.9051 129.684 99.3401C129.661 99.7523 129.627 100.142 129.581 100.508ZM122.917 94.7374C122.024 94.7374 121.291 95.0351 120.719 95.6304C120.169 96.2258 119.837 97.0159 119.723 98.0005H125.665C125.665 97.9547 125.665 97.886 125.665 97.7944C125.665 97.6799 125.665 97.5998 125.665 97.554C125.665 96.7067 125.413 96.0312 124.91 95.5274C124.429 95.0007 123.765 94.7374 122.917 94.7374ZM141.594 91.749L141.422 95.9739C141.285 95.9052 141.044 95.8365 140.701 95.7678C140.38 95.6991 140.071 95.6648 139.773 95.6648C139.155 95.6648 138.548 95.7793 137.953 96.0083C137.38 96.2144 136.854 96.5006 136.373 96.867V107H131.976V91.9894L136.373 91.7833V93.5695C137.037 92.8825 137.712 92.3787 138.399 92.0581C139.109 91.7375 139.842 91.5772 140.598 91.5772C140.758 91.5772 140.93 91.5887 141.113 91.6116C141.319 91.6345 141.479 91.6803 141.594 91.749ZM159.114 85.4631L158.942 89.2415C158.782 89.1728 158.564 89.127 158.29 89.1041C158.038 89.0812 157.797 89.0698 157.568 89.0698C156.744 89.0698 156.114 89.253 155.679 89.6193C155.244 89.9857 155.027 90.5926 155.027 91.4399V91.8864H158.771L158.461 95.6648H155.027V107H150.63V95.6648H148.569V91.8864H150.63V91.3712C150.63 89.356 151.214 87.8332 152.382 86.8027C153.55 85.7493 155.118 85.2227 157.087 85.2227C157.408 85.2227 157.763 85.2456 158.152 85.2914C158.542 85.3372 158.862 85.3944 159.114 85.4631ZM175.888 99.4432C175.888 100.955 175.533 102.306 174.823 103.496C174.136 104.687 173.174 105.626 171.938 106.313C170.701 106.977 169.293 107.309 167.713 107.309C166.133 107.309 164.724 106.977 163.488 106.313C162.251 105.626 161.278 104.687 160.568 103.496C159.881 102.306 159.538 100.955 159.538 99.4432C159.538 97.9089 159.881 96.5579 160.568 95.39C161.278 94.1992 162.251 93.2718 163.488 92.6077C164.724 91.9207 166.133 91.5772 167.713 91.5772C169.293 91.5772 170.701 91.9207 171.938 92.6077C173.174 93.2718 174.136 94.1992 174.823 95.39C175.533 96.5579 175.888 97.9089 175.888 99.4432ZM171.354 99.4432C171.354 98.6417 171.194 97.9433 170.873 97.3479C170.552 96.7296 170.117 96.2602 169.568 95.9396C169.018 95.5961 168.4 95.4243 167.713 95.4243C167.026 95.4243 166.408 95.5961 165.858 95.9396C165.308 96.2602 164.873 96.7296 164.553 97.3479C164.232 97.9433 164.072 98.6417 164.072 99.4432C164.072 100.245 164.232 100.955 164.553 101.573C164.873 102.168 165.308 102.638 165.858 102.981C166.431 103.302 167.049 103.462 167.713 103.462C168.423 103.462 169.052 103.302 169.602 102.981C170.152 102.638 170.575 102.168 170.873 101.573C171.194 100.955 171.354 100.245 171.354 99.4432ZM187.483 91.749L187.312 95.9739C187.174 95.9052 186.934 95.8365 186.59 95.7678C186.27 95.6991 185.961 95.6648 185.663 95.6648C185.045 95.6648 184.438 95.7793 183.842 96.0083C183.27 96.2144 182.743 96.5006 182.262 96.867V107H177.866V91.9894L182.262 91.7833V93.5695C182.926 92.8825 183.602 92.3787 184.289 92.0581C184.999 91.7375 185.732 91.5772 186.487 91.5772C186.648 91.5772 186.819 91.5887 187.003 91.6116C187.209 91.6345 187.369 91.6803 187.483 91.749Z" fill="white"/>
<path d="M212.251 105.866C211.519 106.347 210.603 106.714 209.503 106.966C208.427 107.195 207.294 107.309 206.103 107.309C203.836 107.309 201.866 106.851 200.195 105.935C198.523 105.019 197.229 103.771 196.313 102.191C195.397 100.588 194.939 98.7906 194.939 96.7983C194.939 94.7603 195.397 92.9627 196.313 91.4055C197.229 89.8254 198.477 88.5774 200.057 87.6614C201.66 86.7455 203.469 86.2875 205.485 86.2875C206.927 86.2875 208.187 86.4363 209.263 86.734C210.362 87.0088 211.347 87.4439 212.217 88.0393L210.74 92.1955C210.122 91.6688 209.4 91.2567 208.576 90.959C207.752 90.6613 206.836 90.5124 205.828 90.5124C204.637 90.5124 203.572 90.7643 202.634 91.2681C201.695 91.7719 200.95 92.4932 200.401 93.4321C199.874 94.371 199.611 95.493 199.611 96.7983C199.611 98.012 199.886 99.0997 200.435 100.061C200.985 101 201.763 101.745 202.771 102.294C203.779 102.821 204.946 103.084 206.275 103.084C207.465 103.084 208.565 102.935 209.572 102.638C210.603 102.34 211.438 101.939 212.08 101.435L212.251 105.866ZM218.969 85.2227V107H214.572V85.4288L218.969 85.2227ZM224.144 84.9479C224.831 84.9479 225.392 85.1769 225.827 85.6349C226.262 86.0699 226.48 86.6195 226.48 87.2836C226.48 87.9706 226.262 88.5431 225.827 89.0011C225.392 89.4362 224.831 89.6537 224.144 89.6537C223.434 89.6537 222.839 89.4362 222.358 89.0011C221.9 88.5431 221.671 87.9706 221.671 87.2836C221.671 86.6195 221.9 86.0699 222.358 85.6349C222.839 85.1769 223.434 84.9479 224.144 84.9479ZM226.274 91.7833V107H221.877V91.9894L226.274 91.7833ZM241.272 92.9169L240.311 96.9014C239.921 96.5121 239.406 96.1915 238.765 95.9396C238.124 95.6877 237.46 95.5617 236.773 95.5617C236.017 95.5617 235.33 95.722 234.712 96.0426C234.116 96.3403 233.647 96.7754 233.303 97.3479C232.983 97.9204 232.822 98.6074 232.822 99.4088C232.822 100.233 232.994 100.943 233.338 101.538C233.681 102.134 234.173 102.58 234.815 102.878C235.479 103.176 236.246 103.325 237.116 103.325C237.895 103.325 238.627 103.21 239.314 102.981C240.024 102.752 240.654 102.454 241.204 102.088L241.375 106.004C240.734 106.393 240.001 106.714 239.177 106.966C238.353 107.195 237.425 107.309 236.395 107.309C234.952 107.309 233.612 107 232.376 106.382C231.139 105.763 230.143 104.87 229.388 103.702C228.655 102.512 228.288 101.081 228.288 99.4088C228.288 97.8975 228.643 96.5579 229.353 95.39C230.063 94.1992 231.025 93.2718 232.238 92.6077C233.452 91.9207 234.803 91.5772 236.292 91.5772C237.391 91.5772 238.353 91.7032 239.177 91.9551C240.024 92.1841 240.723 92.5047 241.272 92.9169ZM264.075 106.141V107H258.785L257.171 105.523C256.255 106.073 255.293 106.508 254.286 106.828C253.278 107.149 252.259 107.309 251.228 107.309C249.282 107.309 247.656 107.011 246.351 106.416C245.069 105.798 244.107 104.973 243.466 103.943C242.847 102.912 242.538 101.756 242.538 100.474C242.538 98.9852 242.893 97.7028 243.603 96.6266C244.336 95.5274 245.275 94.6801 246.42 94.0847C246.328 93.787 246.248 93.4893 246.179 93.1917C246.133 92.894 246.11 92.5848 246.11 92.2642C246.11 91.2567 246.351 90.2949 246.832 89.3789C247.313 88.4629 248.045 87.7187 249.03 87.1462C250.038 86.5737 251.309 86.2875 252.843 86.2875C253.896 86.2875 254.847 86.402 255.694 86.631C256.541 86.86 257.262 87.192 257.858 87.6271L256.862 91.2338C256.472 90.8903 255.934 90.604 255.247 90.375C254.583 90.146 253.919 90.0315 253.255 90.0315C252.385 90.0315 251.721 90.2376 251.263 90.6498C250.828 91.0391 250.61 91.5429 250.61 92.1612C250.61 92.5047 250.679 92.8367 250.816 93.1573C250.954 93.455 251.194 93.7985 251.538 94.1878C251.904 94.5771 252.396 95.0809 253.015 95.6991L257.652 100.061C257.972 99.5119 258.224 98.9051 258.407 98.241C258.614 97.5769 258.717 96.8785 258.717 96.1457V94.7717L263.045 94.6V95.7678C263.045 97.1647 262.816 98.4585 262.358 99.6493C261.922 100.84 261.316 101.905 260.537 102.844L264.075 106.141ZM251.331 103.531C251.881 103.531 252.396 103.462 252.877 103.325C253.381 103.164 253.828 102.97 254.217 102.741L250.301 99.031C249.98 98.7562 249.671 98.47 249.374 98.1723C249.076 97.8517 248.79 97.5425 248.515 97.2449C248.057 97.5425 247.69 97.9204 247.416 98.3784C247.141 98.8364 247.004 99.3745 247.004 99.9928C247.004 100.68 247.164 101.298 247.484 101.848C247.805 102.374 248.286 102.787 248.927 103.084C249.568 103.382 250.37 103.531 251.331 103.531ZM288.089 86.5966V107H283.52V94.4969H283.349C283.257 94.9549 283.131 95.4129 282.971 95.8709C282.81 96.3289 282.604 96.8327 282.353 97.3822L279.124 104.08H274.83L271.601 97.3822C271.372 96.8785 271.178 96.3861 271.017 95.9052C270.857 95.4243 270.72 94.9549 270.605 94.4969H270.433V107H266.071V86.5966H270.914L275.792 96.8327C276.021 97.3364 276.25 97.8746 276.479 98.4471C276.708 98.9967 276.88 99.4775 276.994 99.8897H277.166C277.28 99.4775 277.452 98.9852 277.681 98.4127C277.91 97.8402 278.139 97.3135 278.368 96.8327L283.211 86.5966H288.089ZM293.548 84.9479C294.235 84.9479 294.796 85.1769 295.231 85.6349C295.666 86.0699 295.884 86.6195 295.884 87.2836C295.884 87.9706 295.666 88.5431 295.231 89.0011C294.796 89.4362 294.235 89.6537 293.548 89.6537C292.838 89.6537 292.243 89.4362 291.762 89.0011C291.304 88.5431 291.075 87.9706 291.075 87.2836C291.075 86.6195 291.304 86.0699 291.762 85.6349C292.243 85.1769 292.838 84.9479 293.548 84.9479ZM295.678 91.7833V107H291.281V91.9894L295.678 91.7833ZM311.569 107H307.413V105.832C306.864 106.267 306.199 106.622 305.421 106.897C304.642 107.172 303.784 107.309 302.845 107.309C301.173 107.309 299.891 106.908 298.998 106.107C298.127 105.305 297.692 104.195 297.692 102.775C297.692 101.241 298.23 100.084 299.307 99.3058C300.383 98.5043 301.837 98.1036 303.669 98.1036C304.333 98.1036 304.997 98.1608 305.661 98.2753C306.325 98.3898 306.864 98.5387 307.276 98.7219V97.8975C307.276 97.0044 306.99 96.3747 306.417 96.0083C305.867 95.619 304.997 95.4243 303.806 95.4243C302.959 95.4243 302.089 95.5274 301.196 95.7335C300.326 95.9396 299.627 96.2029 299.101 96.5235L298.929 92.6764C299.639 92.3329 300.475 92.0696 301.436 91.8864C302.421 91.6803 303.429 91.5772 304.459 91.5772C306.749 91.5772 308.501 92.0696 309.715 93.0543C310.951 94.016 311.569 95.5388 311.569 97.6227V107ZM307.276 103.496V101.332C306.955 101.172 306.554 101.046 306.074 100.955C305.616 100.863 305.169 100.817 304.734 100.817C303.864 100.817 303.2 100.977 302.742 101.298C302.284 101.596 302.055 102.065 302.055 102.706C302.055 103.302 302.249 103.737 302.639 104.012C303.028 104.264 303.6 104.389 304.356 104.389C304.883 104.389 305.421 104.309 305.97 104.149C306.52 103.966 306.955 103.748 307.276 103.496ZM337.904 107H333.507V97.9662C333.507 97.8517 333.496 97.7486 333.473 97.657C333.45 97.5654 333.427 97.4738 333.404 97.3822C333.336 96.6953 333.107 96.2029 332.717 95.9052C332.328 95.6075 331.824 95.4587 331.206 95.4587C331.183 95.4587 331.149 95.4701 331.103 95.493C331.057 95.493 331.023 95.493 331 95.493C330.565 95.5159 330.107 95.6075 329.626 95.7678C329.168 95.9281 328.721 96.1457 328.286 96.4205C328.309 96.6266 328.321 96.8327 328.321 97.0388C328.344 97.2449 328.355 97.4624 328.355 97.6914V107H323.993V97.9662C323.993 97.8517 323.981 97.7486 323.958 97.657C323.935 97.5654 323.913 97.4738 323.89 97.3822C323.821 96.6953 323.592 96.2029 323.203 95.9052C322.813 95.6075 322.31 95.4587 321.691 95.4587C321.256 95.4587 320.775 95.5503 320.249 95.7335C319.745 95.8938 319.275 96.1228 318.84 96.4205V107H314.444V91.9894L318.84 91.7833V93.1917C319.344 92.8024 319.848 92.4932 320.352 92.2642C320.878 92.0123 321.394 91.852 321.897 91.7833C322.493 91.6459 323.123 91.6116 323.787 91.6803C324.611 91.7261 325.355 91.9207 326.019 92.2642C326.683 92.6077 327.21 93.123 327.599 93.8099C328.401 93.0314 329.225 92.4703 330.073 92.1268C330.943 91.7604 331.824 91.5772 332.717 91.5772C334.252 91.5772 335.5 92.0238 336.461 92.9169C337.423 93.787 337.904 95.161 337.904 97.0388V107Z" fill="#A0FFC9"/>
<g style="mix-blend-mode:overlay">
<path fill-rule="evenodd" clip-rule="evenodd" d="M477.798 -3.92365L379 -3.92364V-55L477.798 -55L477.798 -3.92365L529.11 -3.92364V94.7405L477.798 95.3454L477.798 47.5157C451.624 47.9714 430.547 69.211 430.547 95.3454H379C379 40.9038 423.155 -3.46485 477.798 -3.92365Z" fill="#A0FFC9"/>
<path fill-rule="evenodd" clip-rule="evenodd" d="M580.892 94.9324L679.69 94.9288V146.187H580.892V94.9288L529.11 94.7402V-3.92393L580.892 -3.92393V43.6708C607.066 43.2151 628.127 22.2105 628.127 -3.92393H679.221C679.221 50.5176 635.536 94.47 580.892 94.9288V94.9324Z" fill="#06D861" fill-opacity="0.5"/>
<path fill-rule="evenodd" clip-rule="evenodd" d="M778.489 47.0954L679.221 47.0954V-3.92383L778.489 -3.92383V47.099L830.036 47.099V146.187H778.489V98.357C752.315 98.8127 731.238 120.052 731.238 146.187H679.691C679.691 91.7451 723.845 47.5578 778.489 47.099V47.0954Z" fill="#A0FFC9" fill-opacity="0.7"/>
</g>
</g>
<rect x="0.5" y="0.5" width="829" height="134" rx="13.5" stroke="url(#paint2_linear_669_6286)" style="mix-blend-mode:overlay"/>
<rect x="0.5" y="0.5" width="829" height="134" rx="13.5" stroke="url(#paint3_linear_669_6286)" stroke-opacity="0.1"/>
<rect x="0.5" y="0.5" width="829" height="134" rx="13.5" stroke="white" stroke-opacity="0.1"/>
<defs>
<radialGradient id="paint0_radial_669_6286" cx="0" cy="0" r="1" gradientUnits="userSpaceOnUse" gradientTransform="translate(9.4458e-07 165.586) rotate(17.7974) scale(413.385 308.037)">
<stop offset="0.100613" stop-color="#A0FFC9" stop-opacity="0"/>
<stop offset="0.515" stop-color="#00FF6F"/>
<stop offset="1" stop-color="#00FF6F" stop-opacity="0.35"/>
</radialGradient>
<radialGradient id="paint1_radial_669_6286" cx="0" cy="0" r="1" gradientUnits="userSpaceOnUse" gradientTransform="translate(1075 -132) rotate(110.154) scale(458.578 1768.11)">
<stop stop-color="#2BB165" stop-opacity="0"/>
<stop offset="0.285" stop-color="#2BB165"/>
<stop offset="1" stop-color="#2BB165" stop-opacity="0.184314"/>
</radialGradient>
<linearGradient id="paint2_linear_669_6286" x1="415" y1="0" x2="415" y2="135" gradientUnits="userSpaceOnUse">
<stop stop-color="white" stop-opacity="0.6"/>
<stop offset="0.5" stop-color="white" stop-opacity="0"/>
<stop offset="1" stop-color="white"/>
</linearGradient>
<linearGradient id="paint3_linear_669_6286" x1="415" y1="0" x2="415" y2="135" gradientUnits="userSpaceOnUse">
<stop stop-color="white" stop-opacity="0.6"/>
<stop offset="0.5" stop-color="white" stop-opacity="0"/>
<stop offset="1" stop-color="white"/>
</linearGradient>
<clipPath id="clip0_669_6286">
<rect width="830" height="135" rx="14" fill="white"/>
</clipPath>
</defs>
</svg>
